<svg width="17" height="20" viewBox="0 0 17 20" fill="none" xmlns="http://www.w3.org/2000/svg">
<path d="M12.0171 3.72429C11.0648 2.91715 10.0838 2.07984 9.09096 1.09017L8.52505 0.528259L7.9695 1.09096C6.18219 2.88302 5.33775 5.63461 4.97108 7.28541C4.69042 6.85041 4.48216 6.37278 4.35441 5.87112L4.0187 4.57508L3.04251 5.49255C1.33219 7.0981 0.191717 8.69096 0.191717 11.2417C0.175746 13.0816 0.774984 14.8741 1.89427 16.3345C3.01355 17.7948 4.58868 18.8393 6.3695 19.3021C6.90606 19.4326 7.45371 19.5123 8.00521 19.5402C8.17764 19.562 8.35124 19.5733 8.52505 19.5743C8.61629 19.5743 8.70524 19.5664 8.7941 19.5608C10.9561 19.4957 13.0077 18.5908 14.5133 17.0378C16.019 15.4849 16.8602 13.4063 16.8584 11.2433C16.8584 7.83541 14.6148 5.93064 12.0171 3.72429ZM8.68381 17.9735C8.60438 17.9735 8.52505 17.9814 8.44092 17.9807C7.72657 17.9588 7.04869 17.6601 6.55049 17.1477C6.0523 16.6353 5.7728 15.9493 5.77108 15.2346C5.77108 14.2283 6.31077 13.7267 7.53219 12.687C7.84013 12.4251 8.17505 12.1402 8.52743 11.814C8.83619 12.0941 9.13619 12.3481 9.41315 12.5838C10.6401 13.6251 11.2806 14.2164 11.2806 15.2322C11.2792 15.9342 11.0096 16.6092 10.5269 17.1188C10.044 17.6284 9.38467 17.9342 8.68381 17.9735ZM12.6679 16.5679L12.652 16.5791C12.7945 16.1451 12.8673 15.6913 12.8679 15.2346C12.8679 13.437 11.6886 12.4354 10.441 11.3759C9.99886 11.0013 9.54248 10.614 9.08696 10.1584L8.52505 9.59735L7.96394 10.1584C7.44965 10.6719 6.94648 11.1005 6.50282 11.4783C5.25838 12.537 4.18298 13.4521 4.18298 15.2346C4.18468 15.711 4.26513 16.1837 4.42108 16.6338C3.59494 15.9994 2.92661 15.1827 2.4683 14.2473C2.00998 13.312 1.77408 12.2833 1.77902 11.2417C1.76597 9.84906 2.305 8.50788 3.27822 7.5116C3.44586 7.85169 3.64459 8.17556 3.87188 8.47905C4.03788 8.70305 4.26579 8.87359 4.52754 8.96962C4.78928 9.06566 5.0734 9.08301 5.34489 9.01953C5.62107 8.95804 5.8737 8.81831 6.07257 8.61705C6.27144 8.41579 6.40814 8.1615 6.46632 7.88461C6.79863 6.06052 7.51736 4.32863 8.57429 2.80524C9.41153 3.59889 10.241 4.30127 10.9893 4.93699C13.4751 7.0481 15.2751 8.5735 15.2751 11.2465C15.277 12.274 15.0429 13.2882 14.5907 14.2109C14.1385 15.1335 13.4804 15.9399 12.6671 16.5679H12.6679Z" fill="#253D4E"/>
</svg>
