<?xml version="1.0" encoding="UTF-8"?>
<!DOCTYPE svg PUBLIC "-//W3C//DTD SVG 1.1//EN" "http://www.w3.org/Graphics/SVG/1.1/DTD/svg11.dtd">
<!-- Creator: CorelDRAW X7 -->
<svg xmlns="http://www.w3.org/2000/svg" xml:space="preserve" width="0.106661in" height="0.106661in" version="1.1" style="shape-rendering:geometricPrecision; text-rendering:geometricPrecision; image-rendering:optimizeQuality; fill-rule:evenodd; clip-rule:evenodd"
viewBox="0 0 107 107"
 xmlns:xlink="http://www.w3.org/1999/xlink">
 <defs>
  <style type="text/css">
   <![CDATA[
    .fil2 {fill:none}
    .fil1 {fill:#FEFEFE}
    .fil0 {fill:#00A859}
   ]]>
  </style>
   <clipPath id="id0">
    <path d="M54 0c29,0 53,24 53,53 0,30 -24,54 -53,54 -30,0 -54,-24 -54,-54 0,-29 24,-53 54,-53z"/>
   </clipPath>
 </defs>
 <g id="Layer_x0020_1">
  <metadata id="CorelCorpID_0Corel-Layer"/>
  <path class="fil0" d="M54 0c29,0 53,24 53,53 0,30 -24,54 -53,54 -30,0 -54,-24 -54,-54 0,-29 24,-53 54,-53z"/>
  <g style="clip-path:url(#id0)">
   <g id="_353983384">
    <g>
     <polygon id="1" class="fil1" points="44,31 59,31 86,31 86,36 45,36 51,60 80,60 80,65 46,65 46,65 46,65 46,65 46,65 39,36 39,36 39,35 38,31 "/>
     <path class="fil1" d="M29 32l5 0 1 5 8 33 49 0c2,0 3,2 3,4l0 0c0,2 -1,4 -3,4l-6 0c1,0 1,0 1,1 0,2 -3,4 -5,4 -3,0 -5,-2 -5,-4 0,-1 0,-1 0,-1l-19 0c0,0 1,0 1,1 0,2 -3,4 -5,4 -3,0 -5,-2 -5,-4 0,-1 0,-1 0,-1l-5 0 -2 0 -2 0 0 -1c0,0 -1,0 -1,0l0 -5 -1 0 0 -3c0,0 -1,0 -1,0l-27 0c-1,0 -2,-1 -2,-3l0 0c0,-1 1,-2 2,-2l26 0 -1 -6 -35 0c-1,0 -2,-1 -2,-2l0 0c0,-2 1,-3 2,-3l34 0 -4 -16 -6 0 1 5 -5 0 -1 -5 -2 -5 6 0 6 0zm-34 1l17 0c2,0 3,1 3,2l0 1c0,1 -1,2 -3,2l-17 0c-1,0 -2,-1 -2,-2l0 -1c0,-1 1,-2 2,-2zm8 31l-4 0c-1,0 -3,1 -3,2l0 0c0,2 2,3 3,3l4 0c1,0 2,-1 2,-3l0 0c0,-1 -1,-2 -2,-2zm-12 -11l-5 0c-2,0 -3,1 -3,3l0 0c0,1 1,2 3,2l5 0c2,0 3,-1 3,-2l0 0c0,-2 -1,-3 -3,-3z"/>
     <path class="fil1" d="M86 47l0 7 7 -9c0,0 1,-1 1,-1 0,0 1,0 1,0 1,0 1,0 1,0 1,1 1,1 1,2 0,0 -1,1 -1,2l-5 5 6 8c0,1 0,1 0,2 1,0 1,0 1,1 0,0 0,1 -1,1 0,0 -1,1 -1,1 -1,0 -1,0 -1,-1 -1,0 -1,0 -1,-1 0,0 -1,-1 -1,-1l-4 -8 -3 4 0 4c0,1 0,2 -1,2 0,0 0,1 -1,1 0,0 0,0 -1,-1 0,0 0,0 0,0 -1,-1 -1,-1 -1,-1 0,-1 0,-1 0,-2l0 -15c0,-1 0,-2 1,-2 0,-1 1,-1 1,-1 1,0 1,0 1,1 1,0 1,1 1,2z"/>
    </g>
   </g>
  </g>
  <path class="fil2" d="M54 0c29,0 53,24 53,53 0,30 -24,54 -53,54 -30,0 -54,-24 -54,-54 0,-29 24,-53 54,-53z"/>
 </g>
</svg>
