<?xml version="1.0" encoding="UTF-8"?>
<!DOCTYPE svg PUBLIC "-//W3C//DTD SVG 1.1//EN" "http://www.w3.org/Graphics/SVG/1.1/DTD/svg11.dtd">
<!-- Creator: CorelDRAW X7 -->
<svg xmlns="http://www.w3.org/2000/svg" xml:space="preserve" width="8.26772in" height="11.6929in" version="1.1" style="shape-rendering:geometricPrecision; text-rendering:geometricPrecision; image-rendering:optimizeQuality; fill-rule:evenodd; clip-rule:evenodd"
viewBox="0 0 8268 11693"
 xmlns:xlink="http://www.w3.org/1999/xlink">
 <defs>
  <style type="text/css">
   <![CDATA[
    .str2 {stroke:#373435;stroke-width:55.5551}
    .str3 {stroke:#373435;stroke-width:111.11}
    .str0 {stroke:#373435;stroke-width:6.94488}
    .str1 {stroke:#373435;stroke-width:3}
    .fil2 {fill:none}
    .fil1 {fill:none;fill-rule:nonzero}
    .fil0 {fill:#373435}
   ]]>
  </style>
 </defs>
 <g id="Layer_x0020_1">
  <metadata id="CorelCorpID_0Corel-Layer"/>
  <path class="fil0 str0" d="M2253 3979l150 0 36 149 256 1047 1566 0c60,0 109,49 109,109l0 14c0,59 -49,108 -109,108l-165 0c1,9 2,18 2,28 0,82 -67,149 -150,149 -82,0 -149,-67 -149,-149 0,-10 1,-19 2,-28l-603 0c2,9 3,18 3,28 0,82 -67,149 -150,149 -83,0 -150,-67 -150,-149 0,-10 1,-19 3,-28l-153 0 -81 0 -69 0 -7 -31c-2,-2 -3,-3 -4,-5l-28 -140 -4 0 -26 -109c-2,0 -4,0 -6,0l-863 0c-42,0 -76,-35 -76,-77l0 -10c0,-42 34,-76 76,-76l829 0 -40 -164 -1119 0c-42,0 -77,-34 -77,-76l0 -10c0,-42 35,-77 77,-77l1079 0 -123 -503 -204 0 37 150 -163 0 -37 -150 -36 -149 163 0 204 0zm-1083 13l553 0c43,0 77,35 77,77l0 10c0,42 -34,76 -77,76l-553 0c-42,0 -77,-34 -77,-76l0 -10c0,-42 35,-77 77,-77zm239 966l-117 0c-42,0 -77,34 -77,76l0 10c0,42 35,77 77,77l117 0c42,0 77,-35 77,-77l0 -10c0,-42 -35,-76 -77,-76zm-357 -327l-186 0c-42,0 -77,35 -77,77l0 10c0,42 35,76 77,76l186 0c43,0 77,-34 77,-76l0 -10c0,-42 -34,-77 -77,-77z"/>
  <path class="fil0 str1" d="M6796 4709c0,38 -9,73 -27,104 -17,31 -42,55 -76,72 -34,18 -73,26 -119,26 -56,0 -101,-12 -137,-35 -25,-17 -46,-40 -62,-69 -16,-28 -24,-56 -24,-83 0,-16 5,-29 15,-41 9,-11 21,-16 36,-16 12,0 22,4 30,13 9,8 16,21 21,39 7,20 15,37 23,50 9,14 20,25 35,34 15,9 35,14 60,14 33,0 60,-9 81,-27 21,-18 32,-40 32,-67 0,-21 -6,-39 -17,-52 -11,-13 -26,-23 -44,-30 -18,-7 -42,-15 -72,-22 -40,-11 -74,-24 -101,-38 -27,-14 -48,-34 -64,-59 -16,-25 -24,-56 -24,-93 0,-35 8,-66 25,-93 17,-28 41,-49 73,-63 32,-15 69,-22 112,-22 34,0 64,5 89,14 25,10 46,23 63,39 16,16 28,33 36,51 7,17 11,35 11,52 0,15 -5,29 -14,41 -10,13 -22,19 -36,19 -13,0 -23,-4 -29,-11 -7,-8 -14,-20 -22,-37 -10,-24 -23,-43 -37,-56 -14,-14 -37,-20 -69,-20 -29,0 -52,7 -70,22 -18,14 -27,32 -27,53 0,12 3,23 9,33 6,9 14,17 25,24 11,6 22,12 33,15 10,4 29,10 54,17 31,8 60,18 85,28 26,10 48,22 66,37 18,14 31,33 42,55 10,22 15,50 15,82z"/>
  <polygon class="fil0 str1" points="6046,4651 6213,4651 6129,4387 "/>
  <path class="fil0 str1" d="M6158 4824l-27 -80 -227 0 -27 82c-10,32 -19,54 -27,65 -7,11 -19,17 -36,17 -14,0 -27,-6 -38,-18 -11,-12 -16,-26 -16,-41 0,-8 1,-18 4,-27 2,-9 7,-22 12,-39l143 -414c4,-12 9,-27 15,-43 6,-17 12,-31 18,-42 7,-11 15,-20 26,-27 10,-7 23,-10 39,-10 16,0 29,3 40,10 10,7 19,16 25,27 7,10 12,22 16,34 5,13 11,29 17,50l147 412c11,31 17,54 17,68 0,15 -6,29 -16,41 -11,13 -24,19 -40,19 -8,0 -16,-2 -23,-6 -6,-3 -11,-8 -16,-15 -4,-6 -8,-16 -13,-28 -5,-13 -10,-25 -13,-35z"/>
  <path class="fil0 str1" d="M5451 4804l-90 -407 0 308 -104 0 0 -373c0,-28 7,-46 19,-56 13,-10 30,-15 52,-15l35 0c21,0 36,3 46,7 9,4 16,12 21,23 4,12 10,30 16,56l81 350 81 -350c6,-26 11,-44 16,-56 4,-11 11,-19 21,-23 9,-4 25,-7 46,-7l35 0c21,0 39,5 51,15 13,10 19,28 19,56l0 506c0,24 -5,43 -14,55 -10,12 -22,18 -38,18 -15,0 -27,-6 -37,-18 -10,-12 -15,-31 -15,-55l0 -441 -89 407c-6,26 -11,46 -15,58 -3,13 -10,24 -20,34 -10,10 -24,15 -41,15 -13,0 -25,-3 -34,-10 -9,-6 -16,-14 -21,-25 -5,-10 -9,-21 -12,-33 -3,-13 -6,-26 -9,-39z"/>
  <path class="fil0 str1" d="M5050 4579c0,-47 -6,-87 -20,-122 -13,-34 -32,-60 -56,-77 -25,-18 -53,-27 -85,-27 -22,0 -43,5 -62,15 -20,10 -36,24 -50,42 -14,19 -25,43 -33,72 -8,29 -12,61 -12,97 0,37 4,69 12,99 8,29 20,54 34,73 15,19 32,34 51,43 19,10 39,15 62,15 29,0 55,-9 80,-25 24,-17 43,-42 58,-77 14,-35 21,-77 21,-128z"/>
  <path class="fil0 str1" d="M4889 4251c58,0 108,13 150,40 41,27 73,65 94,115 21,49 32,107 32,174 0,49 -6,94 -17,135 -12,40 -30,75 -53,105 -24,29 -52,52 -86,68 -34,15 -73,23 -117,23 -44,0 -83,-8 -118,-24 -34,-16 -63,-39 -86,-68 -24,-29 -41,-65 -53,-106 -12,-41 -18,-86 -18,-134 0,-49 7,-94 19,-135 12,-41 30,-76 54,-105 23,-28 51,-50 85,-65 33,-16 72,-23 114,-23z"/>
  <path class="fil0 str1" d="M4209 4329l0 224 222 -265c11,-13 20,-22 27,-28 8,-6 18,-9 30,-9 17,0 30,5 40,16 10,11 15,24 15,40 0,19 -8,38 -26,56l-137 149 158 260c12,18 20,34 26,47 5,14 8,27 8,40 0,14 -5,26 -15,37 -9,10 -23,15 -40,15 -15,0 -28,-4 -38,-11 -10,-8 -18,-18 -25,-31 -7,-13 -13,-24 -19,-35l-133 -235 -93 101 0 132c0,27 -5,47 -16,60 -11,13 -25,19 -41,19 -10,0 -19,-3 -28,-9 -9,-5 -16,-13 -21,-23 -3,-8 -5,-18 -6,-28 -1,-11 -1,-27 -1,-47l0 -475c0,-26 5,-46 15,-59 10,-13 23,-19 41,-19 17,0 30,6 41,19 11,13 16,33 16,59z"/>
  <path class="fil1 str2" d="M6644 5126l-165 0 -19 111c32,-17 63,-26 90,-26 22,0 43,4 63,13 19,8 36,20 50,34 15,15 26,32 34,52 9,20 13,42 13,65 0,33 -8,64 -23,91 -15,27 -36,49 -65,65 -28,17 -60,25 -97,25 -41,0 -75,-8 -101,-23 -25,-15 -44,-33 -54,-53 -11,-19 -16,-36 -16,-51 0,-9 3,-18 11,-26 7,-8 17,-12 28,-12 19,0 34,11 43,34 9,20 22,36 38,48 15,11 33,17 52,17 18,0 33,-5 47,-14 13,-9 24,-22 31,-38 7,-16 11,-35 11,-55 0,-22 -4,-41 -12,-57 -8,-16 -18,-27 -31,-35 -14,-8 -28,-12 -44,-12 -20,0 -34,3 -43,8 -9,4 -21,13 -37,25 -16,12 -29,18 -39,18 -12,0 -22,-4 -31,-12 -8,-8 -13,-18 -13,-28 0,-1 2,-9 4,-23l29 -166c3,-20 9,-34 18,-43 9,-9 23,-14 43,-14l183 0c36,0 54,14 54,41 0,12 -5,22 -14,29 -8,8 -21,12 -38,12zm480 172c0,38 -2,71 -7,98 -4,27 -13,52 -25,74 -16,27 -36,48 -61,63 -25,15 -53,22 -83,22 -35,0 -67,-10 -94,-30 -28,-20 -49,-47 -63,-82 -7,-19 -13,-40 -16,-64 -3,-23 -5,-48 -5,-75 0,-35 2,-66 6,-94 3,-28 9,-52 17,-72 13,-33 33,-58 59,-76 26,-17 57,-26 93,-26 24,0 45,4 65,12 19,8 36,19 51,34 14,15 27,33 37,55 18,38 26,92 26,161zm-95 -7c0,-42 -2,-76 -7,-103 -5,-27 -14,-47 -26,-61 -12,-14 -29,-21 -50,-21 -30,0 -51,16 -63,46 -12,31 -18,78 -18,142 0,43 2,79 8,107 5,27 13,48 25,62 12,15 28,22 49,22 21,0 38,-8 50,-22 12,-15 20,-36 25,-64 5,-27 7,-63 7,-108zm516 7c0,38 -2,71 -7,98 -4,27 -13,52 -25,74 -16,27 -36,48 -61,63 -25,15 -53,22 -83,22 -35,0 -67,-10 -95,-30 -27,-20 -48,-47 -62,-82 -7,-19 -13,-40 -16,-64 -3,-23 -5,-48 -5,-75 0,-35 2,-66 6,-94 3,-28 9,-52 17,-72 13,-33 33,-58 59,-76 26,-17 57,-26 93,-26 24,0 45,4 65,12 19,8 36,19 51,34 14,15 27,33 37,55 18,38 26,92 26,161zm-95 -7c0,-42 -2,-76 -7,-103 -5,-27 -14,-47 -26,-61 -12,-14 -29,-21 -50,-21 -30,0 -51,16 -63,46 -12,31 -18,78 -18,142 0,43 2,79 7,107 6,27 14,48 26,62 12,15 28,22 49,22 21,0 38,-8 50,-22 12,-15 20,-36 25,-64 5,-27 7,-63 7,-108z"/>
  <rect class="fil0 str0" x="5263" y="4726" width="90.909" height="189.395" rx="45" ry="45"/>
  <rect class="fil0 str0" transform="matrix(0.273311 0.0930476 -0.0856518 0.267487 5816 4712.13)" width="324" height="674" rx="162" ry="162"/>
  <polygon class="fil2 str3" points="2793,3979 3282,3979 4125,3979 4125,4142 2831,4142 3010,4903 3948,4903 3948,5066 2857,5066 2853,5067 2853,5066 2847,5066 2847,5043 2636,4142 2630,4142 2630,4115 2598,3979 "/>
 </g>
</svg>
