<?xml version="1.0" encoding="UTF-8"?>
<!DOCTYPE svg PUBLIC "-//W3C//DTD SVG 1.1//EN" "http://www.w3.org/Graphics/SVG/1.1/DTD/svg11.dtd">
<!-- Creator: CorelDRAW X7 -->
<svg xmlns="http://www.w3.org/2000/svg" xml:space="preserve" width="8.26772in" height="11.6929in" version="1.1" style="shape-rendering:geometricPrecision; text-rendering:geometricPrecision; image-rendering:optimizeQuality; fill-rule:evenodd; clip-rule:evenodd"
viewBox="0 0 8268 11693"
 xmlns:xlink="http://www.w3.org/1999/xlink">
 <defs>
  <style type="text/css">
   <![CDATA[
    .str1 {stroke:#FEFEFE;stroke-width:83.3307}
    .str0 {stroke:#FEFEFE;stroke-width:6.94488}
    .str2 {stroke:#FEFEFE;stroke-width:3}
    .fil0 {fill:#FEFEFE}
    .fil1 {fill:#FEFEFE;fill-rule:nonzero}
   ]]>
  </style>
 </defs>
 <g id="Layer_x0020_1">
  <metadata id="CorelCorpID_0Corel-Layer"/>
  <path class="fil0 str0" d="M2149 4158l197 0 48 196 335 1375 2058 0c78,0 142,64 142,143l0 18c0,78 -64,143 -142,143l-218 0c2,11 3,23 3,35 0,109 -88,197 -196,197 -109,0 -197,-88 -197,-197 0,-12 2,-24 4,-35l-792 0c2,11 3,23 3,35 0,109 -88,197 -197,197 -108,0 -196,-88 -196,-197 0,-12 1,-24 3,-35l-201 0 -106 0 -90 0 -10 -42c-2,-2 -4,-4 -6,-6l-36 -185 -5 0 -35 -143c-2,1 -5,1 -8,1l-1132 0c-56,0 -101,-46 -101,-101l0 -13c0,-55 45,-101 101,-101l1088 0 -52 -214 -1470 0c-55,0 -101,-45 -101,-101l0 -12c0,-56 46,-101 101,-101l1417 0 -161 -661 -268 0 48 197 -214 0 -48 -197 -48 -196 214 0 268 0zm-1422 18l727 0c55,0 101,45 101,100l0 13c0,55 -46,101 -101,101l-727 0c-56,0 -101,-46 -101,-101l0 -13c0,-55 45,-100 101,-100zm314 1267l-153 0c-56,0 -101,46 -101,101l0 13c0,55 45,101 101,101l153 0c55,0 101,-46 101,-101l0 -13c0,-55 -46,-101 -101,-101zm-468 -428l-245 0c-56,0 -101,45 -101,101l0 12c0,56 45,101 101,101l245 0c55,0 100,-45 100,-101l0 -12c0,-56 -45,-101 -100,-101z"/>
  <path class="fil1 str1" d="M6353 5519l-232 0 -28 158c47,-25 89,-37 128,-37 31,0 60,5 88,17 27,12 51,28 71,49 20,20 36,45 48,73 12,28 17,58 17,91 0,47 -10,90 -31,128 -21,39 -52,70 -91,92 -40,23 -86,35 -138,35 -58,0 -105,-11 -141,-33 -37,-21 -62,-46 -77,-73 -16,-28 -23,-52 -23,-73 0,-13 5,-25 16,-36 10,-11 24,-17 39,-17 28,0 48,15 61,47 13,29 31,51 53,68 22,16 47,24 74,24 25,0 47,-7 66,-20 19,-13 33,-31 43,-53 11,-23 16,-49 16,-78 0,-31 -6,-58 -17,-80 -11,-22 -26,-38 -44,-49 -19,-11 -39,-17 -62,-17 -28,0 -48,4 -60,11 -12,7 -29,18 -52,35 -22,17 -41,26 -56,26 -16,0 -30,-6 -42,-17 -12,-12 -18,-25 -18,-39 0,-2 1,-13 5,-34l41 -233c4,-28 13,-48 25,-61 13,-13 33,-19 61,-19l257 0c50,0 76,19 76,58 0,17 -7,31 -19,41 -12,11 -30,16 -54,16zm676 243c0,54 -3,99 -9,138 -7,38 -19,73 -37,104 -22,38 -50,68 -85,88 -35,21 -74,32 -117,32 -49,0 -94,-14 -133,-42 -39,-28 -68,-67 -88,-116 -10,-27 -18,-57 -23,-90 -4,-32 -7,-67 -7,-106 0,-49 3,-93 8,-132 5,-39 14,-73 25,-101 19,-47 47,-83 83,-107 37,-25 80,-37 131,-37 33,0 64,6 91,16 27,11 51,27 72,48 20,21 38,47 52,78 25,53 37,129 37,227zm-133 -9c0,-60 -4,-109 -11,-146 -7,-38 -19,-67 -36,-86 -17,-19 -41,-29 -70,-29 -43,0 -73,22 -90,65 -17,43 -25,109 -25,199 0,61 4,111 11,150 7,39 19,69 36,89 17,20 40,30 69,30 29,0 53,-11 70,-31 17,-21 29,-51 35,-89 7,-39 11,-90 11,-152zm726 9c0,54 -3,99 -10,138 -6,38 -18,73 -36,104 -22,38 -50,68 -85,88 -35,21 -75,32 -117,32 -50,0 -94,-14 -133,-42 -39,-28 -69,-67 -89,-116 -10,-27 -17,-57 -22,-90 -4,-32 -7,-67 -7,-106 0,-49 3,-93 8,-132 5,-39 13,-73 24,-101 20,-47 47,-83 84,-107 36,-25 80,-37 131,-37 33,0 64,6 91,16 27,11 51,27 72,48 20,21 38,47 52,78 25,53 37,129 37,227zm-134 -9c0,-60 -3,-109 -10,-146 -7,-38 -19,-67 -36,-86 -17,-19 -41,-29 -70,-29 -43,0 -73,22 -90,65 -17,43 -25,109 -25,199 0,61 3,111 11,150 7,39 19,69 36,89 17,20 40,30 69,30 29,0 53,-11 70,-31 17,-21 28,-51 35,-89 7,-39 10,-90 10,-152z"/>
  <path class="fil0 str2" d="M6963 5039c0,41 -9,78 -27,110 -19,33 -45,58 -81,76 -35,19 -77,28 -126,28 -58,0 -106,-13 -144,-38 -27,-18 -49,-42 -65,-72 -17,-30 -26,-60 -26,-88 0,-17 6,-31 16,-43 10,-11 22,-17 38,-17 13,0 23,4 32,14 9,9 16,22 22,41 8,21 16,39 25,53 8,15 21,27 36,36 16,9 37,14 63,14 35,0 64,-9 86,-28 22,-19 33,-43 33,-71 0,-22 -5,-41 -17,-54 -12,-14 -28,-25 -47,-32 -19,-8 -44,-16 -76,-24 -42,-11 -78,-25 -106,-40 -29,-15 -51,-36 -68,-62 -17,-26 -25,-59 -25,-98 0,-37 8,-70 26,-99 18,-28 44,-51 77,-66 34,-16 73,-23 119,-23 36,0 67,5 94,15 26,10 48,24 65,41 18,17 30,35 39,54 8,18 12,37 12,54 0,17 -5,31 -15,44 -11,13 -23,20 -38,20 -14,0 -24,-4 -31,-12 -7,-8 -15,-21 -23,-38 -11,-26 -24,-46 -39,-60 -15,-14 -39,-21 -73,-21 -31,0 -56,7 -74,23 -19,15 -29,34 -29,56 0,13 3,25 10,35 6,10 15,18 26,25 12,7 23,13 35,17 11,4 30,10 57,17 33,9 63,19 90,30 27,10 50,23 69,39 19,15 34,35 44,58 11,23 16,52 16,86z"/>
  <polygon class="fil0 str2" points="6173,4978 6349,4978 6260,4700 "/>
  <path class="fil0 str2" d="M6290 5161l-28 -84 -240 0 -28 86c-11,34 -21,57 -28,68 -8,12 -21,18 -39,18 -15,0 -28,-6 -39,-19 -12,-12 -18,-27 -18,-43 0,-9 2,-18 4,-28 3,-10 7,-23 14,-41l150 -438c5,-12 10,-28 16,-45 6,-18 12,-33 19,-44 7,-12 16,-21 27,-28 11,-8 25,-11 41,-11 17,0 31,3 42,11 11,7 20,16 27,27 7,12 13,24 18,37 4,13 10,30 17,52l155 435c12,33 18,57 18,73 0,15 -6,30 -17,43 -12,13 -26,19 -42,19 -9,0 -17,-2 -24,-6 -6,-4 -12,-9 -17,-15 -4,-7 -9,-17 -14,-31 -6,-13 -10,-25 -14,-36z"/>
  <path class="fil0 str2" d="M5544 5140l-95 -430 0 325 -109 0 0 -393c0,-30 6,-49 20,-60 13,-10 31,-15 54,-15l37 0c22,0 38,2 48,7 10,4 18,13 23,25 5,12 10,31 16,58l86 370 86 -370c6,-27 12,-46 16,-58 5,-12 13,-21 23,-25 10,-5 26,-7 48,-7l37 0c23,0 41,5 55,15 13,11 20,30 20,60l0 534c0,25 -6,45 -16,58 -10,12 -23,19 -40,19 -16,0 -29,-7 -39,-19 -10,-13 -15,-33 -15,-58l0 -466 -95 430c-6,28 -11,48 -15,61 -4,13 -11,25 -21,36 -11,11 -25,16 -44,16 -14,0 -26,-4 -35,-10 -10,-7 -18,-16 -23,-27 -5,-11 -10,-22 -13,-35 -3,-14 -6,-27 -9,-41z"/>
  <path class="fil0 str2" d="M5121 4902c0,-49 -7,-92 -21,-128 -14,-36 -34,-64 -60,-82 -25,-19 -55,-28 -89,-28 -24,0 -46,5 -66,15 -20,11 -38,26 -52,45 -15,20 -26,45 -35,76 -8,30 -13,64 -13,102 0,39 5,73 13,104 9,31 21,57 36,78 15,20 33,35 53,45 20,11 42,16 66,16 31,0 59,-9 84,-27 26,-17 46,-44 61,-81 16,-36 23,-81 23,-135z"/>
  <path class="fil0 str2" d="M4951 4556c62,0 114,14 158,42 44,28 77,69 100,121 22,52 33,114 33,184 0,52 -6,100 -18,142 -13,43 -31,80 -56,111 -24,32 -55,55 -91,72 -36,17 -77,25 -123,25 -46,0 -88,-9 -124,-26 -37,-17 -67,-41 -92,-72 -24,-31 -43,-68 -55,-111 -13,-44 -19,-91 -19,-142 0,-51 7,-99 20,-142 13,-43 32,-80 56,-111 25,-30 55,-53 91,-69 35,-16 75,-24 120,-24z"/>
  <path class="fil0 str2" d="M4233 4639l0 236 235 -280c11,-13 21,-23 28,-30 8,-6 19,-9 32,-9 17,0 31,5 42,17 10,11 16,25 16,42 0,20 -9,40 -27,59l-146 158 168 274c12,19 21,35 27,50 5,14 8,28 8,41 0,15 -5,28 -15,39 -11,11 -25,17 -42,17 -17,0 -30,-4 -41,-12 -10,-8 -19,-19 -26,-33 -8,-13 -14,-25 -20,-36l-141 -249 -98 107 0 140c0,28 -6,49 -17,62 -11,14 -26,21 -43,21 -11,0 -20,-3 -30,-9 -9,-6 -16,-15 -21,-25 -4,-9 -6,-19 -7,-30 -1,-11 -2,-28 -2,-49l0 -502c0,-27 6,-48 16,-62 11,-13 25,-20 44,-20 18,0 32,6 43,20 11,14 17,35 17,63z"/>
  <rect class="fil0 str0" x="5346" y="5057" width="95.9549" height="199.908" rx="48" ry="48"/>
  <rect class="fil0 str0" transform="matrix(0.288481 0.0982122 -0.0904059 0.282334 5929.35 5042.72)" width="324" height="674" rx="162" ry="162"/>
  <polygon class="fil0 str1" points="2859,4158 3501,4158 4608,4158 4608,4372 2909,4372 3143,5372 4376,5372 4376,5586 2942,5586 2937,5587 2937,5586 2929,5586 2929,5556 2652,4372 2644,4372 2644,4336 2602,4158 "/>
 </g>
</svg>
