<svg width="27" height="6" viewBox="0 0 27 6" fill="none" xmlns="http://www.w3.org/2000/svg">
<path d="M0.333333 3C0.333333 4.47276 1.52724 5.66667 3 5.66667C4.47276 5.66667 5.66667 4.47276 5.66667 3C5.66667 1.52724 4.47276 0.333333 3 0.333333C1.52724 0.333333 0.333333 1.52724 0.333333 3ZM21.3333 3C21.3333 4.47276 22.5272 5.66667 24 5.66667C25.4728 5.66667 26.6667 4.47276 26.6667 3C26.6667 1.52724 25.4728 0.333333 24 0.333333C22.5272 0.333333 21.3333 1.52724 21.3333 3ZM3 3.5H24V2.5H3V3.5Z" fill="#3BB77E"/>
</svg>
